# xmcd CD database file
#
# Track frame offsets:
#	182
#	13352
#	25367
#	38275
#	52230
#	64987
#	78750
#	93197
#	108070
#	122057
#	135672
#	150367
#	165180
#	180030
#	194217
#	209865
#	223775
#	236940
#	250235
#	264122
#	274475
#	287362
#	301690
#	314522
#
# Disc length: 4367 seconds
#
# Revision: 0
# Processed by: cddbd v1.4PL0 Copyright (c) Steve Scherf et al.
# Submitted via: CDex 1.50beta10
#
DISCID=4e110d18
DTITLE=Billie Holiday - The Voice Of Jazz - The Complete Recordings 1933-1940
DYEAR=1991
DGENRE=Jazz
TTITLE0=Summertime
TTITLE1=Billie's Blues
TTITLE2=A Fine Romance
TTITLE3=I Can't Pretend
TTITLE4=One, Two, Button Your Shoe
TTITLE5=Let's Call A Heart A Heart
TTITLE6=Easy To Love
TTITLE7=With Thee I Swing
TTITLE8=The Way You Look Tonight
TTITLE9=The Way You Look Tonight
TTITLE10=Who Loves You
TTITLE11=Who Loves You
TTITLE12=Pennies From Heaven
TTITLE13=That's Life I Guess
TTITLE14=I Can't Give You Anything But Love
TTITLE15=One Never Knows, Does One
TTITLE16=I've Got My Love To Keep Me Warm
TTITLE17=I've Got My Love To Keep Me Warm
TTITLE18=If My Heart Could Only Talk
TTITLE19=Please Keep Me In Your Dreams
TTITLE20=He Ain't Got Rhythm
TTITLE21=This Years Kisses
TTITLE22=Why Was I Born
TTITLE23=I Must Have That Man
EXTD=YEAR: 1991
EXTT0=
EXTT1=
EXTT2=
EXTT3=
EXTT4=
EXTT5=
EXTT6=
EXTT7=
EXTT8=
EXTT9=
EXTT10=
EXTT11=
EXTT12=
EXTT13=
EXTT14=
EXTT15=
EXTT16=
EXTT17=
EXTT18=
EXTT19=
EXTT20=
EXTT21=
EXTT22=
EXTT23=
PLAYORDER=
